<svg width="44" height="44" viewBox="0 0 44 44" fill="none" xmlns="http://www.w3.org/2000/svg">
    <path d="M41.0809 17.8061L38.0419 17.2906C37.7254 16.2685 37.3184 15.2827 36.8209 14.342L38.6117 11.8366C39.3715 10.7694 39.2539 9.31317 38.3223 8.39062L35.627 5.6953C35.1205 5.1888 34.4512 4.90841 33.7367 4.90841C33.1759 4.90841 32.6423 5.08026 32.19 5.40587L29.6756 7.19672C28.6988 6.68117 27.6767 6.25607 26.6185 5.93951L26.112 2.93667C25.8949 1.64328 24.7824 0.702637 23.4709 0.702637H19.6631C18.3517 0.702637 17.2392 1.64328 17.0221 2.93667L16.4975 6.01186C15.4845 6.32843 14.4986 6.74448 13.558 7.25099L11.0707 5.46014C10.6185 5.13453 10.0758 4.96268 9.51501 4.96268C8.80048 4.96268 8.12212 5.24307 7.62467 5.74957L4.92031 8.44488C3.99775 9.36744 3.87112 10.8236 4.63088 11.8909L6.43981 14.4325C5.94236 15.3822 5.54439 16.368 5.23687 17.3901L2.23404 17.8966C0.940647 18.1136 0 19.2261 0 20.5376V24.3454C0 25.6569 0.940647 26.7694 2.23404 26.9865L5.30923 27.5111C5.62579 28.5241 6.04185 29.5099 6.54835 30.4506L4.76655 32.9288C4.00679 33.9961 4.12437 35.4523 5.05598 36.3749L7.75129 39.0702C8.25779 39.5767 8.9271 39.8571 9.64163 39.8571C10.2024 39.8571 10.736 39.6852 11.1883 39.3596L13.7298 37.5507C14.6433 38.03 15.6021 38.419 16.5879 38.7265L17.0944 41.7655C17.3115 43.0589 18.424 43.9995 19.7355 43.9995H23.5524C24.8638 43.9995 25.9763 43.0589 26.1934 41.7655L26.7089 38.7265C27.731 38.4099 28.7169 38.0029 29.6575 37.5054L32.1629 39.2963C32.6151 39.6219 33.1578 39.7937 33.7186 39.7937C34.4331 39.7937 35.1024 39.5134 35.6089 39.0069L38.3042 36.3115C39.2268 35.389 39.3534 33.9328 38.5937 32.8655L36.8028 30.3511C37.3003 29.4014 37.7163 28.4155 38.0238 27.4025L41.0629 26.896C42.3562 26.679 43.2969 25.5665 43.2969 24.255V20.4472C43.315 19.1357 42.3743 18.0232 41.0809 17.8061ZM40.8729 24.255C40.8729 24.3726 40.7915 24.4721 40.6739 24.4901L36.8752 25.1233C36.3958 25.2047 36.0159 25.5574 35.8983 26.0187C35.5546 27.3483 35.0301 28.6236 34.3246 29.8084C34.0804 30.2245 34.0984 30.74 34.3788 31.138L36.6129 34.2855C36.6762 34.376 36.6671 34.5117 36.5857 34.5931L33.8904 37.2884C33.8271 37.3517 33.7638 37.3607 33.7186 37.3607C33.6643 37.3607 33.6191 37.3426 33.5829 37.3155L30.4444 35.0815C30.0555 34.8011 29.5309 34.783 29.1148 35.0272C27.93 35.7327 26.6547 36.2573 25.3251 36.601C24.8548 36.7186 24.502 37.1075 24.4297 37.5778L23.7875 41.3766C23.7694 41.4941 23.6699 41.5756 23.5524 41.5756H19.7445C19.627 41.5756 19.5275 41.4941 19.5094 41.3766L18.8762 37.5778C18.7948 37.0984 18.4421 36.7186 17.9808 36.601C16.6874 36.2663 15.4393 35.7508 14.2725 35.0815C14.0826 34.9729 13.8655 34.9187 13.6575 34.9187C13.4133 34.9187 13.16 34.991 12.952 35.1448L9.78635 37.3969C9.74112 37.424 9.6959 37.4421 9.65067 37.4421C9.6145 37.4421 9.54214 37.4331 9.47883 37.3698L6.78351 34.6745C6.70211 34.5931 6.69306 34.4664 6.75638 34.3669L8.98137 31.2465C9.26175 30.8486 9.27984 30.324 9.03564 29.9079C8.33015 28.7321 7.78747 27.4568 7.44377 26.1272C7.31715 25.666 6.93727 25.3132 6.46695 25.2318L2.64105 24.5806C2.52347 24.5625 2.44206 24.463 2.44206 24.3454V20.5376C2.44206 20.42 2.52347 20.3206 2.64105 20.3025L6.41268 19.6693C6.89205 19.5879 7.28097 19.2352 7.39855 18.7649C7.7332 17.4353 8.24875 16.151 8.94519 14.9661C9.1894 14.55 9.16226 14.0345 8.88188 13.6456L6.62975 10.4799C6.56644 10.3895 6.57548 10.2538 6.65689 10.1724L9.3522 7.4771C9.41551 7.41379 9.47883 7.40475 9.52405 7.40475C9.57832 7.40475 9.62354 7.42283 9.65972 7.44997L12.7801 9.67496C13.1781 9.95535 13.7027 9.97344 14.1187 9.72923C15.2946 9.02374 16.5699 8.48106 17.8994 8.13736C18.3607 8.01074 18.7134 7.63086 18.7948 7.16054L19.4461 3.33464C19.4642 3.21706 19.5636 3.13566 19.6812 3.13566H23.489C23.6066 3.13566 23.7061 3.21706 23.7242 3.33464L24.3573 7.10627C24.4387 7.58564 24.7915 7.97456 25.2618 8.09214C26.6275 8.43584 27.93 8.96948 29.142 9.68401C29.558 9.92821 30.0736 9.91012 30.4715 9.62974L33.5919 7.38666C33.6372 7.35952 33.6824 7.34143 33.7276 7.34143C33.7638 7.34143 33.8362 7.35048 33.8995 7.41379L36.5948 10.1091C36.6762 10.1905 36.6852 10.3171 36.6219 10.4166L34.3879 13.5551C34.1075 13.944 34.0894 14.4686 34.3336 14.8847C35.0391 16.0695 35.5637 17.3449 35.9074 18.6744C36.025 19.1447 36.4139 19.4975 36.8842 19.5698L40.683 20.212C40.8006 20.2301 40.882 20.3296 40.882 20.4472V24.255H40.8729Z"
          fill="black"/>
    <path d="M21.6527 13.0032C16.4973 13.0032 12.3096 17.1909 12.3096 22.3463C12.3096 27.5018 16.4973 31.6895 21.6527 31.6895C26.8082 31.6895 30.9959 27.5018 30.9959 22.3463C30.9959 17.1909 26.8082 13.0032 21.6527 13.0032ZM21.6527 29.2474C17.8449 29.2474 14.7516 26.1541 14.7516 22.3463C14.7516 18.5385 17.8449 15.4452 21.6527 15.4452C25.4605 15.4452 28.5538 18.5385 28.5538 22.3463C28.5538 26.1541 25.4605 29.2474 21.6527 29.2474Z"
          fill="black"/>
</svg>
