<svg width="49" height="49" viewBox="0 0 49 49" fill="none" xmlns="http://www.w3.org/2000/svg">
    <g >
        <path d="M0.155146 4.49491L3.42305 10.2134C3.53328 10.4067 3.71778 10.5465 3.93354 10.6006L6.98233 11.3628L17.439 21.8195L18.5944 20.6644L7.97406 10.0444C7.86955 9.93952 7.73848 9.86525 7.59498 9.82929L4.66549 9.09432L1.8832 4.2227L4.2686 1.8373L9.14223 4.62228L9.87754 7.55177C9.91317 7.69561 9.98777 7.82701 10.0923 7.93153L20.7127 18.5519L21.8677 17.3965L11.411 6.93979L10.6488 3.89268C10.5947 3.67659 10.4549 3.49175 10.2617 3.38119L4.54283 0.113615C4.2239 -0.0678603 3.82264 -0.0140897 3.56252 0.245017L0.29495 3.51293C0.0321458 3.77136 -0.0249854 4.1733 0.155146 4.49491Z"
              fill="black"/>
        <path d="M34.1196 16.1006L16.1471 34.0734L14.9917 32.918L32.9645 14.9456L34.1196 16.1006Z" fill="#000"/>
        <path d="M13.0014 34.7093C12.8535 34.4633 12.588 34.3131 12.301 34.3131H7.39949C7.11283 34.3131 6.847 34.4633 6.69947 34.7093L4.24853 38.7939C4.09294 39.0527 4.09294 39.3763 4.24853 39.6354L6.69947 43.7199C6.847 43.9656 7.11283 44.1162 7.39949 44.1162H12.301C12.588 44.1162 12.8535 43.9656 13.0014 43.7199L15.452 39.6354C15.6076 39.3763 15.6076 39.0527 15.452 38.7939L13.0014 34.7093ZM11.8389 42.4822H7.86192L5.90131 39.2146L7.86192 35.9467H11.8389L13.7995 39.2146L11.8389 42.4822Z"
              fill="#000"/>
        <path d="M39.2603 19.6081C44.6558 19.6262 49.0448 15.2668 49.063 9.87125C49.0657 9.04991 48.9648 8.23192 48.7629 7.43578C48.654 6.99789 48.2107 6.73139 47.7728 6.84027C47.629 6.87623 47.4979 6.9505 47.3931 7.05502L42.3077 12.137L38.2729 10.7924L36.9273 6.75861L42.0126 1.67225C42.3316 1.35298 42.3312 0.835778 42.012 0.516851C41.9068 0.411662 41.7744 0.337056 41.6295 0.301433C36.397 -1.02368 31.0814 2.14375 29.7563 7.37596C29.555 8.16975 29.4545 8.98572 29.4572 9.80471C29.4592 10.4479 29.5254 11.0892 29.6558 11.7189L11.7647 29.6098C11.1349 29.4797 10.4936 29.4135 9.85075 29.4111C4.43639 29.4111 0.0473633 33.8002 0.0473633 39.2145C0.0473633 44.6286 4.43639 49.0176 9.85075 49.0176C15.2648 49.0176 19.6538 44.6286 19.6538 39.2145C19.6518 38.5713 19.5853 37.9301 19.4552 37.3003L23.7384 33.0171L25.6116 34.8904C25.9309 35.2093 26.4477 35.2093 26.767 34.8904L27.1753 34.4817C27.5336 34.1258 28.1126 34.1258 28.4708 34.4817C28.8288 34.8386 28.8294 35.418 28.4725 35.7759C28.4722 35.7762 28.4715 35.7769 28.4708 35.7776L28.0625 36.1859C27.7436 36.5048 27.7436 37.022 28.0625 37.341L37.8078 47.0862C40.371 49.6729 44.5456 49.6917 47.1323 47.1286C49.7186 44.5654 49.7375 40.3904 47.1743 37.8041C47.1605 37.7899 47.1464 37.7758 47.1323 37.7617L37.387 28.0168C37.0681 27.6979 36.5509 27.6979 36.232 28.0168L35.8236 28.4251C35.4651 28.7814 34.8864 28.7814 34.5278 28.4251C34.1702 28.0682 34.1692 27.4888 34.5261 27.1313C34.5268 27.1306 34.5274 27.1303 34.5278 27.1296L34.9364 26.7209C35.2554 26.402 35.2554 25.8848 34.9364 25.5659L33.0632 23.6926L37.3464 19.4095C37.9761 19.5395 38.6174 19.6061 39.2603 19.6081ZM42.47 47.384C41.8765 47.383 41.2881 47.2757 40.7326 47.0671L47.1128 40.6865C48.0756 43.2477 46.7801 46.1042 44.2189 47.0671C43.66 47.2771 43.0676 47.3846 42.47 47.384ZM33.2151 26.1516C32.3104 27.2307 32.4522 28.8392 33.5313 29.7435C34.4797 30.5383 35.862 30.5376 36.8093 29.7412L45.9772 38.9171C46.0767 39.0169 46.1698 39.1221 46.2598 39.229L39.275 46.2138C39.1678 46.1241 39.0626 46.031 38.9628 45.9311L29.7879 36.7555C30.6926 35.6764 30.5508 34.068 29.4717 33.1637C28.5233 32.3685 27.1407 32.3695 26.1933 33.1657L24.8864 31.8587L31.9078 24.8477L33.2151 26.1516ZM36.5139 17.9352L17.9815 36.4638C17.7782 36.6668 17.6966 36.9615 17.7658 37.2401C18.8866 41.6416 16.2269 46.1183 11.8251 47.2388C7.42368 48.3596 2.94694 45.6999 1.82616 41.2981C0.705717 36.8967 3.36535 32.4199 7.76714 31.2992C9.09864 30.9604 10.4936 30.9604 11.8251 31.2992C12.1037 31.3674 12.3978 31.2857 12.6015 31.0837L31.1295 12.5547C31.3325 12.3518 31.4141 12.057 31.3442 11.7788C30.2312 7.42872 32.8552 3.00004 37.2052 1.88666C38.0272 1.67662 38.8775 1.59596 39.7244 1.64872L35.415 5.95978C35.1962 6.17822 35.1196 6.50185 35.2174 6.79524L36.851 11.6971C36.9327 11.9407 37.1242 12.1323 37.3682 12.2133L42.2701 13.8473C42.5631 13.945 42.8867 13.8688 43.1055 13.6503L47.4149 9.34094C47.4247 9.49687 47.4297 9.65113 47.4297 9.80471C47.4525 14.2935 43.8324 17.951 39.3436 17.9741C38.6496 17.9775 37.958 17.8921 37.2859 17.7201C37.0073 17.6505 36.7125 17.7318 36.5096 17.9348H36.5139V17.9352Z"
              fill="#000"/>
        <path d="M42.2893 41.0874L41.1339 42.2428L32.9648 34.0737L34.1199 32.9183L42.2893 41.0874Z" fill="#000"/>
    </g>
</svg>
