<svg width="34" height="34" viewBox="0 0 34 34" fill="none" xmlns="http://www.w3.org/2000/svg">
<path d="M23.375 0H10.625C4.75787 0 0 4.75787 0 10.625V23.375C0 29.2421 4.75787 34 10.625 34H23.375C29.2421 34 34 29.2421 34 23.375V10.625C34 4.75787 29.2421 0 23.375 0ZM30.8125 23.375C30.8125 27.4762 27.4762 30.8125 23.375 30.8125H10.625C6.52375 30.8125 3.1875 27.4762 3.1875 23.375V10.625C3.1875 6.52375 6.52375 3.1875 10.625 3.1875H23.375C27.4762 3.1875 30.8125 6.52375 30.8125 10.625V23.375Z" fill="#949494"/>
<path d="M17 8.5C12.3059 8.5 8.5 12.3059 8.5 17C8.5 21.6941 12.3059 25.5 17 25.5C21.6941 25.5 25.5 21.6941 25.5 17C25.5 12.3059 21.6941 8.5 17 8.5ZM17 22.3125C14.0718 22.3125 11.6875 19.9283 11.6875 17C11.6875 14.0696 14.0718 11.6875 17 11.6875C19.9283 11.6875 22.3125 14.0696 22.3125 17C22.3125 19.9283 19.9283 22.3125 17 22.3125Z" fill="#949494"/>
<path d="M26.1375 8.99498C26.763 8.99498 27.2701 8.48789 27.2701 7.86236C27.2701 7.23683 26.763 6.72974 26.1375 6.72974C25.512 6.72974 25.0049 7.23683 25.0049 7.86236C25.0049 8.48789 25.512 8.99498 26.1375 8.99498Z" fill="#949494"/>
</svg>
