<svg width="17" height="17" viewBox="0 0 17 17" fill="none" xmlns="http://www.w3.org/2000/svg">
<g >
<path d="M16.1333 14.6033L12.7843 11.2713C13.6343 10.1323 14.1273 8.73829 14.1273 7.22529C14.1273 3.48529 11.0843 0.425293 7.32734 0.425293C3.58734 0.425293 0.527344 3.46829 0.527344 7.22529C0.527344 10.9823 3.57034 14.0253 7.32734 14.0253C8.72134 14.0253 10.0303 13.6003 11.1183 12.8693L14.5013 16.2523C14.7223 16.4733 15.0283 16.5923 15.3173 16.5923C15.6063 16.5923 15.9123 16.4733 16.1333 16.2523C16.5753 15.7933 16.5753 15.0623 16.1333 14.6033ZM2.83934 7.22529C2.83934 4.74329 4.86234 2.72029 7.32734 2.72029C9.79235 2.72029 11.8153 4.74329 11.8153 7.20829C11.8153 9.67329 9.80934 11.7133 7.32734 11.7133C4.84534 11.7133 2.83934 9.69029 2.83934 7.22529Z" fill="#4B4B4B"/>
</g>
</svg>
