<svg width="54" height="54" viewBox="0 0 54 54" fill="none" xmlns="http://www.w3.org/2000/svg">
<path d="M41.1984 38.3551L36.1855 36.6845L34.3859 33.0851C36.0071 31.435 37.1328 29.2515 37.5124 26.9742L37.7368 25.6289H39.6562C41.4009 25.6289 42.8203 24.2095 42.8203 22.4648V15.8203C42.8203 7.09699 35.7233 0 27 0C18.2543 0 11.1797 7.07664 11.1797 15.8203V22.4648C11.1797 23.8397 12.0615 25.0121 13.2891 25.4475V26.6836C13.2891 28.4283 14.7085 29.8477 16.4531 29.8477H17.3794C17.8366 30.8409 18.4283 31.7608 19.1485 32.5871C19.2978 32.7588 19.4536 32.9252 19.6132 33.0871L17.8145 36.6845L12.8015 38.3552C6.97275 40.2988 2.74219 46.4348 2.74219 52.9453C2.74219 53.5278 3.21437 54 3.79688 54H50.2031C50.7855 54 51.2578 53.5278 51.2578 52.9453C51.2578 46.4348 47.0274 40.2988 41.1984 38.3551ZM40.7109 22.4648C40.7109 23.0464 40.2378 23.5195 39.6562 23.5195H38.0466C38.3147 21.4429 38.4934 19.233 38.5652 17.0564C38.5673 16.995 38.569 16.9353 38.5709 16.875H40.7109V22.4648ZM14.3438 23.5195C13.7622 23.5195 13.2891 23.0464 13.2891 22.4648V16.875H15.4299C15.4333 16.985 15.437 17.0955 15.4412 17.2068C15.4413 17.2106 15.4415 17.2143 15.4416 17.2181C15.4416 17.2178 15.4416 17.2184 15.4416 17.2181C15.5154 19.3351 15.6917 21.4885 15.9537 23.5194L14.3438 23.5195ZM16.4531 27.7383C15.8716 27.7383 15.3984 27.2651 15.3984 26.6836V25.6289H16.2631L16.4875 26.9746C16.5303 27.2303 16.583 27.4852 16.6438 27.7383H16.4531ZM15.4002 14.7656H13.3291C13.8633 7.697 19.7624 2.10938 27 2.10938C34.2054 2.10938 40.1304 7.69627 40.6707 14.7656H38.5999C38.5239 8.9409 33.7807 4.21875 27.944 4.21875H26.0562C20.2196 4.21875 15.4761 8.9409 15.4002 14.7656ZM26.0561 6.32812H27.9439C32.6699 6.32812 36.4949 10.1937 36.4922 14.9143C36.4922 15.2462 36.4896 15.5352 36.484 15.7982C36.484 15.8015 36.4839 15.805 36.4839 15.8085L35.1646 15.62C31.5808 15.1083 28.197 13.4164 25.6364 10.8558C25.4385 10.658 25.1703 10.5469 24.8906 10.5469C22.0582 10.5469 19.3468 11.8374 17.5544 14.0176C17.9961 9.72306 21.6267 6.32812 26.0561 6.32812ZM18.8304 27.7383C18.3024 25.9819 17.6983 20.8139 17.5648 17.5022L18.9843 15.6095C20.288 13.8718 22.3162 12.7921 24.4738 12.6682C27.3127 15.3699 30.9853 17.154 34.8664 17.7081L36.4191 17.93C36.3153 20.1327 36.1032 22.3431 35.7994 24.376C35.7993 24.3767 35.7992 24.3774 35.799 24.3782C35.7024 25.0317 35.6263 25.4524 35.4318 26.6272C34.8732 29.9774 32.3734 33.007 29.0734 33.8321C27.7153 34.1711 26.2845 34.171 24.9271 33.8321C22.8666 33.3169 20.9772 31.8912 19.7579 29.8477H21.908C22.3433 31.0752 23.5156 31.957 24.8906 31.957H27C28.7481 31.957 30.1641 30.5412 30.1641 28.793C30.1641 27.0483 28.7447 25.6289 27 25.6289H24.8906C23.485 25.6289 22.3301 26.5368 21.9062 27.7383H18.8304ZM24.8019 35.9665C25.5253 36.1189 26.2629 36.1969 27 36.1969C27.577 36.1969 28.1541 36.1486 28.7247 36.0549L26.8611 38.0258L24.8019 35.9665ZM25.4111 39.5591L22.0659 43.0967C21.1449 41.3339 20.3536 39.4993 19.7045 37.6211L20.9608 35.1086L25.4111 39.5591ZM32.8605 34.7513L34.2953 37.621C33.6452 39.5024 32.8536 41.3376 31.9336 43.0983L28.3532 39.5179L32.8605 34.7513ZM23.8359 28.793C23.8359 28.2107 24.3082 27.7383 24.8906 27.7383H27C27.5816 27.7383 28.0547 28.2114 28.0547 28.793C28.0547 29.3754 27.5823 29.8477 27 29.8477H24.8906C24.3091 29.8477 23.8359 29.3745 23.8359 28.793ZM4.89375 51.8906C5.31172 46.6658 8.78892 41.9168 13.4686 40.3562L17.9082 38.8767C18.7215 41.1259 19.7292 43.3119 20.9101 45.3884C20.9121 45.392 20.914 45.3955 20.916 45.399C20.916 45.3989 20.916 45.3991 20.916 45.399C21.7789 46.9166 22.7501 48.3998 23.803 49.8077L25.1005 51.8906H4.89375ZM27 50.9505L25.5696 48.6541C25.5536 48.6284 25.5365 48.6034 25.5184 48.5791C24.6643 47.4398 23.8676 46.2484 23.142 45.0288L26.9033 41.0512L30.8666 45.0145C30.1361 46.2429 29.3367 47.4393 28.4818 48.5789C28.4302 48.6478 28.5035 48.5392 27 50.9505ZM28.8995 51.8906L30.1969 49.8078C31.2544 48.3945 32.2325 46.8996 33.104 45.3642C33.1093 45.3549 33.1142 45.3454 33.1195 45.3362C33.1201 45.335 33.1208 45.334 33.1214 45.3328C34.2874 43.2761 35.2845 41.1091 36.0918 38.8767L40.5313 40.3562C45.2111 41.9168 48.6883 46.6658 49.1062 51.8906H28.8995Z" fill="black"/>
</svg>
