<svg width="34" height="34" viewBox="0 0 34 34" fill="none" xmlns="http://www.w3.org/2000/svg">
<g>
<path fill-rule="evenodd" clip-rule="evenodd" d="M29.2618 19.6136C30.3897 20.7148 31.58 21.7508 32.5916 22.9629C33.0384 23.5016 33.4615 24.0574 33.7851 24.6826C34.2437 25.5712 33.8283 26.5491 33.0315 26.6022L28.0783 26.6C26.8008 26.706 25.7816 26.1917 24.9247 25.3182C24.2389 24.6197 23.6039 23.8763 22.9444 23.1542C22.6741 22.859 22.3911 22.5813 22.0531 22.3618C21.3769 21.9229 20.79 22.0573 20.4036 22.7625C20.01 23.4798 19.9208 24.2741 19.8821 25.0735C19.8291 26.2398 19.4765 26.5465 18.3049 26.5999C15.801 26.7179 13.4247 26.3391 11.2172 25.076C9.27104 23.9625 7.76184 22.3905 6.44824 20.6109C3.89064 17.1455 1.93203 13.3377 0.171712 9.42313C-0.224523 8.54118 0.065252 8.06775 1.03836 8.05099C2.65424 8.0196 4.2699 8.02184 5.88768 8.04876C6.54442 8.05837 6.9792 8.43505 7.23278 9.05549C8.10702 11.2051 9.17675 13.2503 10.5195 15.146C10.8771 15.6507 11.2417 16.1554 11.7609 16.5107C12.3353 16.904 12.7727 16.7736 13.0429 16.1338C13.2144 15.728 13.2895 15.291 13.3281 14.8565C13.4561 13.3615 13.473 11.869 13.2485 10.3793C13.1106 9.44949 12.5869 8.8476 11.6592 8.67165C11.1857 8.58195 11.2562 8.40578 11.4855 8.13556C11.8836 7.66951 12.258 7.37939 13.0045 7.37939H18.6024C19.4837 7.55333 19.6794 7.94923 19.8 8.83598L19.8048 15.0541C19.7952 15.3974 19.9763 16.416 20.5946 16.6433C21.0895 16.805 21.4157 16.4091 21.7126 16.0953C23.0529 14.6728 24.0095 12.9917 24.864 11.2509C25.2433 10.4855 25.5694 9.69056 25.8854 8.8963C26.1196 8.30692 26.487 8.01692 27.1509 8.02977L32.5385 8.03457C32.6983 8.03457 32.8599 8.03692 33.0146 8.06339C33.9225 8.21811 34.1713 8.60865 33.8909 9.49518C33.4491 10.8861 32.5895 12.0452 31.749 13.2096C30.8505 14.4529 29.8895 15.6535 28.9985 16.9041C28.1799 18.0461 28.2449 18.6218 29.2618 19.6136Z" fill="#949494"/>
</g>
</svg>
